<?plantuml 1.2026.2?><svg xmlns="http://www.w3.org/2000/svg" xmlns:xlink="http://www.w3.org/1999/xlink" contentStyleType="text/css" data-diagram-type="CLASS" height="1441px" preserveAspectRatio="none" style="width:667px;height:1441px;background:#FFFFFF;" version="1.1" viewBox="0 0 667 1441" width="667px" zoomAndPan="magnify"><defs/><g><!--class Config--><g class="entity" data-qualified-name="Config" data-source-line="2" id="ent0002"><rect fill="#F1F1F1" height="373.9375" rx="2.5" ry="2.5" style="stroke:#181818;stroke-width:0.5;" width="232.917" x="7" y="7"/><ellipse cx="96.749" cy="23" fill="#ADD1B2" rx="11" ry="11" style="stroke:#181818;stroke-width:1;"/><path d="M99.7178,28.6406 Q99.1396,28.9375 98.499,29.0781 Q97.8584,29.2344 97.1553,29.2344 Q94.6553,29.2344 93.3271,27.5938 Q92.0146,25.9375 92.0146,22.8125 Q92.0146,19.6875 93.3271,18.0313 Q94.6553,16.375 97.1553,16.375 Q97.8584,16.375 98.499,16.5313 Q99.1553,16.6875 99.7178,16.9844 L99.7178,19.7031 Q99.0928,19.125 98.499,18.8594 Q97.9053,18.5781 97.2803,18.5781 Q95.9365,18.5781 95.249,19.6563 Q94.5615,20.7188 94.5615,22.8125 Q94.5615,24.9063 95.249,25.9844 Q95.9365,27.0469 97.2803,27.0469 Q97.9053,27.0469 98.499,26.7813 Q99.0928,26.5 99.7178,25.9219 L99.7178,28.6406 Z " fill="#000000"/><text fill="#000000" font-family="sans-serif" font-size="14" lengthAdjust="spacing" textLength="44.9189" x="117.249" y="27.8467">Config</text><line style="stroke:#181818;stroke-width:0.5;" x1="8" x2="238.917" y1="39" y2="39"/><g data-visibility-modifier="PUBLIC_FIELD"><ellipse cx="18" cy="52.6484" fill="none" rx="3" ry="3" style="stroke:#038048;stroke-width:1;"/></g><text fill="#000000" font-family="sans-serif" font-size="14" lengthAdjust="spacing" textLength="26.5098" x="27" y="55.9951">tool</text><g data-visibility-modifier="PUBLIC_FIELD"><ellipse cx="18" cy="68.9453" fill="none" rx="3" ry="3" style="stroke:#038048;stroke-width:1;"/></g><text fill="#000000" font-family="sans-serif" font-size="14" lengthAdjust="spacing" textLength="25.8809" x="27" y="72.292">pkg</text><g data-visibility-modifier="PUBLIC_FIELD"><ellipse cx="18" cy="85.2422" fill="none" rx="3" ry="3" style="stroke:#038048;stroke-width:1;"/></g><text fill="#000000" font-family="sans-serif" font-size="14" lengthAdjust="spacing" textLength="42.8408" x="27" y="88.5889">config</text><g data-visibility-modifier="PUBLIC_FIELD"><ellipse cx="18" cy="101.5391" fill="none" rx="3" ry="3" style="stroke:#038048;stroke-width:1;"/></g><text fill="#000000" font-family="sans-serif" font-size="14" lengthAdjust="spacing" textLength="118.1318" x="27" y="104.8857">raw_schemas_all</text><line style="stroke:#181818;stroke-width:0.5;" x1="8" x2="238.917" y1="112.1875" y2="112.1875"/><g data-visibility-modifier="PUBLIC_METHOD"><ellipse cx="18" cy="133.9844" fill="#84BE84" rx="3" ry="3" style="stroke:#038048;stroke-width:1;"/></g><text fill="#000000" font-family="sans-serif" font-size="14" lengthAdjust="spacing" textLength="94.7734" x="27" y="129.1826">initialize(tool,</text><text fill="#000000" font-family="sans-serif" font-size="14" lengthAdjust="spacing" textLength="31.3428" x="35.9004" y="145.4795">pkg)</text><g data-visibility-modifier="PUBLIC_METHOD"><ellipse cx="18" cy="158.4297" fill="#84BE84" rx="3" ry="3" style="stroke:#038048;stroke-width:1;"/></g><text fill="#000000" font-family="sans-serif" font-size="14" lengthAdjust="spacing" textLength="57.1689" x="27" y="161.7764">print(...)</text><g data-visibility-modifier="PUBLIC_METHOD"><ellipse cx="18" cy="174.7266" fill="#84BE84" rx="3" ry="3" style="stroke:#038048;stroke-width:1;"/></g><text fill="#000000" font-family="sans-serif" font-size="14" lengthAdjust="spacing" textLength="42.7588" x="27" y="178.0732">read()</text><g data-visibility-modifier="PUBLIC_METHOD"><ellipse cx="18" cy="191.0234" fill="#84BE84" rx="3" ry="3" style="stroke:#038048;stroke-width:1;"/></g><text fill="#000000" font-family="sans-serif" font-size="14" lengthAdjust="spacing" textLength="99.8936" x="27" y="194.3701">get_patterns()</text><g data-visibility-modifier="PUBLIC_METHOD"><ellipse cx="18" cy="207.3203" fill="#84BE84" rx="3" ry="3" style="stroke:#038048;stroke-width:1;"/></g><text fill="#000000" font-family="sans-serif" font-size="14" lengthAdjust="spacing" textLength="84.4102" x="27" y="210.667">get_ftypes()</text><g data-visibility-modifier="PUBLIC_METHOD"><ellipse cx="18" cy="223.6172" fill="#84BE84" rx="3" ry="3" style="stroke:#038048;stroke-width:1;"/></g><text fill="#000000" font-family="sans-serif" font-size="14" lengthAdjust="spacing" textLength="85.4014" x="27" y="226.9639">get_ftype(x)</text><g data-visibility-modifier="PUBLIC_METHOD"><ellipse cx="18" cy="239.9141" fill="#84BE84" rx="3" ry="3" style="stroke:#038048;stroke-width:1;"/></g><text fill="#000000" font-family="sans-serif" font-size="14" lengthAdjust="spacing" textLength="126.0479" x="27" y="243.2607">get_descriptions()</text><g data-visibility-modifier="PUBLIC_METHOD"><ellipse cx="18" cy="256.2109" fill="#84BE84" rx="3" ry="3" style="stroke:#038048;stroke-width:1;"/></g><text fill="#000000" font-family="sans-serif" font-size="14" lengthAdjust="spacing" textLength="206.917" x="27" y="259.5576">get_schemas_all(raw_or_tidy)</text><g data-visibility-modifier="PUBLIC_METHOD"><ellipse cx="18" cy="288.8047" fill="#84BE84" rx="3" ry="3" style="stroke:#038048;stroke-width:1;"/></g><text fill="#000000" font-family="sans-serif" font-size="14" lengthAdjust="spacing" textLength="102.8809" x="27" y="275.8545">get_schema(x,</text><text fill="#000000" font-family="sans-serif" font-size="14" lengthAdjust="spacing" textLength="12.7354" x="35.9004" y="292.1514">v,</text><text fill="#000000" font-family="sans-serif" font-size="14" lengthAdjust="spacing" textLength="86.1191" x="35.9004" y="308.4482">raw_or_tidy)</text><g data-visibility-modifier="PUBLIC_METHOD"><ellipse cx="18" cy="321.3984" fill="#84BE84" rx="3" ry="3" style="stroke:#038048;stroke-width:1;"/></g><text fill="#000000" font-family="sans-serif" font-size="14" lengthAdjust="spacing" textLength="143.3906" x="27" y="324.7451">are_schemas_valid()</text><g data-visibility-modifier="PUBLIC_METHOD"><ellipse cx="18" cy="345.8438" fill="#84BE84" rx="3" ry="3" style="stroke:#038048;stroke-width:1;"/></g><text fill="#000000" font-family="sans-serif" font-size="14" lengthAdjust="spacing" textLength="106.4424" x="27" y="341.042">get_col_map(x,</text><text fill="#000000" font-family="sans-serif" font-size="14" lengthAdjust="spacing" textLength="13.7471" x="35.9004" y="357.3389">v)</text><g data-visibility-modifier="PUBLIC_METHOD"><ellipse cx="18" cy="370.2891" fill="#84BE84" rx="3" ry="3" style="stroke:#038048;stroke-width:1;"/></g><text fill="#000000" font-family="sans-serif" font-size="14" lengthAdjust="spacing" textLength="83.5625" x="27" y="373.6357">clone(deep)</text></g><!--class Tool--><g class="entity" data-qualified-name="Tool" data-source-line="21" id="ent0003"><rect fill="#F1F1F1" height="993.2188" rx="2.5" ry="2.5" style="stroke:#181818;stroke-width:0.5;" width="186.3438" x="249.29" y="440.94"/><ellipse cx="323.4257" cy="456.94" fill="#ADD1B2" rx="11" ry="11" style="stroke:#181818;stroke-width:1;"/><path d="M326.3945,462.5806 Q325.8164,462.8775 325.1757,463.0181 Q324.5351,463.1744 323.832,463.1744 Q321.332,463.1744 320.0039,461.5338 Q318.6914,459.8775 318.6914,456.7525 Q318.6914,453.6275 320.0039,451.9713 Q321.332,450.315 323.832,450.315 Q324.5351,450.315 325.1757,450.4713 Q325.832,450.6275 326.3945,450.9244 L326.3945,453.6431 Q325.7695,453.065 325.1757,452.7994 Q324.582,452.5181 323.957,452.5181 Q322.6132,452.5181 321.9257,453.5963 Q321.2382,454.6588 321.2382,456.7525 Q321.2382,458.8463 321.9257,459.9244 Q322.6132,460.9869 323.957,460.9869 Q324.582,460.9869 325.1757,460.7213 Q325.7695,460.44 326.3945,459.8619 L326.3945,462.5806 Z " fill="#000000"/><text fill="#000000" font-family="sans-serif" font-size="14" lengthAdjust="spacing" textLength="29.5723" x="343.9257" y="461.7867">Tool</text><line style="stroke:#181818;stroke-width:0.5;" x1="250.29" x2="434.6337" y1="472.94" y2="472.94"/><g data-visibility-modifier="PRIVATE_FIELD"><rect fill="none" height="6" style="stroke:#C82930;stroke-width:1;" width="6" x="257.29" y="483.5884"/></g><text fill="#000000" font-family="sans-serif" font-size="14" lengthAdjust="spacing" textLength="57.8389" x="269.29" y="489.9351">is_tidied</text><g data-visibility-modifier="PRIVATE_FIELD"><rect fill="none" height="6" style="stroke:#C82930;stroke-width:1;" width="6" x="257.29" y="499.8853"/></g><text fill="#000000" font-family="sans-serif" font-size="14" lengthAdjust="spacing" textLength="67.7441" x="269.29" y="506.232">is_written</text><g data-visibility-modifier="PUBLIC_FIELD"><ellipse cx="260.29" cy="519.1822" fill="none" rx="3" ry="3" style="stroke:#038048;stroke-width:1;"/></g><text fill="#000000" font-family="sans-serif" font-size="14" lengthAdjust="spacing" textLength="39.7031" x="269.29" y="522.5289">name</text><g data-visibility-modifier="PUBLIC_FIELD"><ellipse cx="260.29" cy="535.4791" fill="none" rx="3" ry="3" style="stroke:#038048;stroke-width:1;"/></g><text fill="#000000" font-family="sans-serif" font-size="14" lengthAdjust="spacing" textLength="25.8809" x="269.29" y="538.8257">pkg</text><g data-visibility-modifier="PUBLIC_FIELD"><ellipse cx="260.29" cy="551.7759" fill="none" rx="3" ry="3" style="stroke:#038048;stroke-width:1;"/></g><text fill="#000000" font-family="sans-serif" font-size="14" lengthAdjust="spacing" textLength="31.8281" x="269.29" y="555.1226">path</text><g data-visibility-modifier="PUBLIC_FIELD"><ellipse cx="260.29" cy="568.0728" fill="none" rx="3" ry="3" style="stroke:#038048;stroke-width:1;"/></g><text fill="#000000" font-family="sans-serif" font-size="14" lengthAdjust="spacing" textLength="42.8408" x="269.29" y="571.4195">config</text><g data-visibility-modifier="PUBLIC_FIELD"><ellipse cx="260.29" cy="584.3697" fill="none" rx="3" ry="3" style="stroke:#038048;stroke-width:1;"/></g><text fill="#000000" font-family="sans-serif" font-size="14" lengthAdjust="spacing" textLength="28.6152" x="269.29" y="587.7164">files</text><g data-visibility-modifier="PUBLIC_FIELD"><ellipse cx="260.29" cy="600.6666" fill="none" rx="3" ry="3" style="stroke:#038048;stroke-width:1;"/></g><text fill="#000000" font-family="sans-serif" font-size="14" lengthAdjust="spacing" textLength="25.5596" x="269.29" y="604.0132">tbls</text><g data-visibility-modifier="PUBLIC_FIELD"><ellipse cx="260.29" cy="616.9634" fill="none" rx="3" ry="3" style="stroke:#038048;stroke-width:1;"/></g><text fill="#000000" font-family="sans-serif" font-size="14" lengthAdjust="spacing" textLength="118.1318" x="269.29" y="620.3101">raw_schemas_all</text><g data-visibility-modifier="PUBLIC_FIELD"><ellipse cx="260.29" cy="633.2603" fill="none" rx="3" ry="3" style="stroke:#038048;stroke-width:1;"/></g><text fill="#000000" font-family="sans-serif" font-size="14" lengthAdjust="spacing" textLength="118.8975" x="269.29" y="636.607">tidy_schemas_all</text><g data-visibility-modifier="PUBLIC_FIELD"><ellipse cx="260.29" cy="649.5572" fill="none" rx="3" ry="3" style="stroke:#038048;stroke-width:1;"/></g><text fill="#000000" font-family="sans-serif" font-size="14" lengthAdjust="spacing" textLength="118.2344" x="269.29" y="652.9039">get_tidy_schema</text><g data-visibility-modifier="PUBLIC_FIELD"><ellipse cx="260.29" cy="665.8541" fill="none" rx="3" ry="3" style="stroke:#038048;stroke-width:1;"/></g><text fill="#000000" font-family="sans-serif" font-size="14" lengthAdjust="spacing" textLength="117.4688" x="269.29" y="669.2007">get_raw_schema</text><g data-visibility-modifier="PUBLIC_FIELD"><ellipse cx="260.29" cy="682.1509" fill="none" rx="3" ry="3" style="stroke:#038048;stroke-width:1;"/></g><text fill="#000000" font-family="sans-serif" font-size="14" lengthAdjust="spacing" textLength="88.2451" x="269.29" y="685.4976">get_col_map</text><g data-visibility-modifier="PUBLIC_FIELD"><ellipse cx="260.29" cy="698.4478" fill="none" rx="3" ry="3" style="stroke:#038048;stroke-width:1;"/></g><text fill="#000000" font-family="sans-serif" font-size="14" lengthAdjust="spacing" textLength="53.8809" x="269.29" y="701.7945">files_tbl</text><line style="stroke:#181818;stroke-width:0.5;" x1="250.29" x2="434.6337" y1="709.0963" y2="709.0963"/><g data-visibility-modifier="PUBLIC_METHOD"><ellipse cx="260.29" cy="747.19" fill="#84BE84" rx="3" ry="3" style="stroke:#038048;stroke-width:1;"/></g><text fill="#000000" font-family="sans-serif" font-size="14" lengthAdjust="spacing" textLength="107.9668" x="269.29" y="726.0914">initialize(name,</text><text fill="#000000" font-family="sans-serif" font-size="14" lengthAdjust="spacing" textLength="30.3311" x="278.1904" y="742.3882">pkg,</text><text fill="#000000" font-family="sans-serif" font-size="14" lengthAdjust="spacing" textLength="36.2783" x="278.1904" y="758.6851">path,</text><text fill="#000000" font-family="sans-serif" font-size="14" lengthAdjust="spacing" textLength="59.3428" x="278.1904" y="774.982">files_tbl)</text><g data-visibility-modifier="PUBLIC_METHOD"><ellipse cx="260.29" cy="787.9322" fill="#84BE84" rx="3" ry="3" style="stroke:#038048;stroke-width:1;"/></g><text fill="#000000" font-family="sans-serif" font-size="14" lengthAdjust="spacing" textLength="57.1689" x="269.29" y="791.2789">print(...)</text><g data-visibility-modifier="PUBLIC_METHOD"><ellipse cx="260.29" cy="812.3775" fill="#84BE84" rx="3" ry="3" style="stroke:#038048;stroke-width:1;"/></g><text fill="#000000" font-family="sans-serif" font-size="14" lengthAdjust="spacing" textLength="128.8164" x="269.29" y="807.5757">filter_files(include,</text><text fill="#000000" font-family="sans-serif" font-size="14" lengthAdjust="spacing" textLength="60.3203" x="278.1904" y="823.8726">exclude)</text><g data-visibility-modifier="PUBLIC_METHOD"><ellipse cx="260.29" cy="836.8228" fill="#84BE84" rx="3" ry="3" style="stroke:#038048;stroke-width:1;"/></g><text fill="#000000" font-family="sans-serif" font-size="14" lengthAdjust="spacing" textLength="98.376" x="269.29" y="840.1695">list_files(type)</text><g data-visibility-modifier="PUBLIC_METHOD"><ellipse cx="260.29" cy="861.2681" fill="#84BE84" rx="3" ry="3" style="stroke:#038048;stroke-width:1;"/></g><text fill="#000000" font-family="sans-serif" font-size="14" lengthAdjust="spacing" textLength="128.3721" x="269.29" y="856.4664">.dispatch_parse(x,</text><text fill="#000000" font-family="sans-serif" font-size="14" lengthAdjust="spacing" textLength="50.6543" x="278.1904" y="872.7632">tname)</text><g data-visibility-modifier="PUBLIC_METHOD"><ellipse cx="260.29" cy="893.8619" fill="#84BE84" rx="3" ry="3" style="stroke:#038048;stroke-width:1;"/></g><text fill="#000000" font-family="sans-serif" font-size="14" lengthAdjust="spacing" textLength="115.7939" x="269.29" y="889.0601">.dispatch_tidy(x,</text><text fill="#000000" font-family="sans-serif" font-size="14" lengthAdjust="spacing" textLength="50.6543" x="278.1904" y="905.357">tname)</text><g data-visibility-modifier="PUBLIC_METHOD"><ellipse cx="260.29" cy="926.4556" fill="#84BE84" rx="3" ry="3" style="stroke:#038048;stroke-width:1;"/></g><text fill="#000000" font-family="sans-serif" font-size="14" lengthAdjust="spacing" textLength="129.1514" x="269.29" y="921.6539">.parse_by_ftype(x,</text><text fill="#000000" font-family="sans-serif" font-size="14" lengthAdjust="spacing" textLength="50.6543" x="278.1904" y="937.9507">tname)</text><g data-visibility-modifier="PUBLIC_METHOD"><ellipse cx="260.29" cy="975.3463" fill="#84BE84" rx="3" ry="3" style="stroke:#038048;stroke-width:1;"/></g><text fill="#000000" font-family="sans-serif" font-size="14" lengthAdjust="spacing" textLength="90.0977" x="269.29" y="954.2476">.parse_file(x,</text><text fill="#000000" font-family="sans-serif" font-size="14" lengthAdjust="spacing" textLength="44.1533" x="278.1904" y="970.5445">name,</text><text fill="#000000" font-family="sans-serif" font-size="14" lengthAdjust="spacing" textLength="43.3672" x="278.1904" y="986.8414">delim,</text><text fill="#000000" font-family="sans-serif" font-size="14" lengthAdjust="spacing" textLength="18.8125" x="278.1904" y="1003.1382">...)</text><g data-visibility-modifier="PUBLIC_METHOD"><ellipse cx="260.29" cy="1032.3853" fill="#84BE84" rx="3" ry="3" style="stroke:#038048;stroke-width:1;"/></g><text fill="#000000" font-family="sans-serif" font-size="14" lengthAdjust="spacing" textLength="77.5195" x="269.29" y="1019.4351">.tidy_file(x,</text><text fill="#000000" font-family="sans-serif" font-size="14" lengthAdjust="spacing" textLength="44.1533" x="278.1904" y="1035.732">name,</text><text fill="#000000" font-family="sans-serif" font-size="14" lengthAdjust="spacing" textLength="104.3096" x="278.1904" y="1052.0289">convert_types)</text><g data-visibility-modifier="PUBLIC_METHOD"><ellipse cx="260.29" cy="1089.4244" fill="#84BE84" rx="3" ry="3" style="stroke:#038048;stroke-width:1;"/></g><text fill="#000000" font-family="sans-serif" font-size="14" lengthAdjust="spacing" textLength="160.3438" x="269.29" y="1068.3257">.parse_file_keyvalue(x,</text><text fill="#000000" font-family="sans-serif" font-size="14" lengthAdjust="spacing" textLength="44.1533" x="278.1904" y="1084.6226">name,</text><text fill="#000000" font-family="sans-serif" font-size="14" lengthAdjust="spacing" textLength="43.3672" x="278.1904" y="1100.9195">delim,</text><text fill="#000000" font-family="sans-serif" font-size="14" lengthAdjust="spacing" textLength="18.8125" x="278.1904" y="1117.2164">...)</text><g data-visibility-modifier="PUBLIC_METHOD"><ellipse cx="260.29" cy="1154.6119" fill="#84BE84" rx="3" ry="3" style="stroke:#038048;stroke-width:1;"/></g><text fill="#000000" font-family="sans-serif" font-size="14" lengthAdjust="spacing" textLength="149.4883" x="269.29" y="1133.5132">.parse_file_nohead(x,</text><text fill="#000000" font-family="sans-serif" font-size="14" lengthAdjust="spacing" textLength="53.04" x="278.1904" y="1149.8101">pname,</text><text fill="#000000" font-family="sans-serif" font-size="14" lengthAdjust="spacing" textLength="43.3672" x="278.1904" y="1166.107">delim,</text><text fill="#000000" font-family="sans-serif" font-size="14" lengthAdjust="spacing" textLength="18.8125" x="278.1904" y="1182.4039">...)</text><g data-visibility-modifier="PUBLIC_METHOD"><ellipse cx="260.29" cy="1203.5025" fill="#84BE84" rx="3" ry="3" style="stroke:#038048;stroke-width:1;"/></g><text fill="#000000" font-family="sans-serif" font-size="14" lengthAdjust="spacing" textLength="63.0137" x="269.29" y="1198.7007">tidy(tidy,</text><text fill="#000000" font-family="sans-serif" font-size="14" lengthAdjust="spacing" textLength="72.4678" x="278.1904" y="1214.9976">keep_raw)</text><g data-visibility-modifier="PUBLIC_METHOD"><ellipse cx="260.29" cy="1260.5416" fill="#84BE84" rx="3" ry="3" style="stroke:#038048;stroke-width:1;"/></g><text fill="#000000" font-family="sans-serif" font-size="14" lengthAdjust="spacing" textLength="72.208" x="269.29" y="1231.2945">write(diro,</text><text fill="#000000" font-family="sans-serif" font-size="14" lengthAdjust="spacing" textLength="51.4063" x="278.1904" y="1247.5914">format,</text><text fill="#000000" font-family="sans-serif" font-size="14" lengthAdjust="spacing" textLength="60.2383" x="278.1904" y="1263.8882">input_id,</text><text fill="#000000" font-family="sans-serif" font-size="14" lengthAdjust="spacing" textLength="70.4033" x="278.1904" y="1280.1851">output_id,</text><text fill="#000000" font-family="sans-serif" font-size="14" lengthAdjust="spacing" textLength="57.2441" x="278.1904" y="1296.482">dbconn)</text><g data-visibility-modifier="PUBLIC_METHOD"><ellipse cx="260.29" cy="1358.3228" fill="#84BE84" rx="3" ry="3" style="stroke:#038048;stroke-width:1;"/></g><text fill="#000000" font-family="sans-serif" font-size="14" lengthAdjust="spacing" textLength="89.9131" x="269.29" y="1312.7789">nemofy(diro,</text><text fill="#000000" font-family="sans-serif" font-size="14" lengthAdjust="spacing" textLength="51.4063" x="278.1904" y="1329.0757">format,</text><text fill="#000000" font-family="sans-serif" font-size="14" lengthAdjust="spacing" textLength="60.2383" x="278.1904" y="1345.3726">input_id,</text><text fill="#000000" font-family="sans-serif" font-size="14" lengthAdjust="spacing" textLength="70.4033" x="278.1904" y="1361.6695">output_id,</text><text fill="#000000" font-family="sans-serif" font-size="14" lengthAdjust="spacing" textLength="56.2324" x="278.1904" y="1377.9664">dbconn,</text><text fill="#000000" font-family="sans-serif" font-size="14" lengthAdjust="spacing" textLength="55.1729" x="278.1904" y="1394.2632">include,</text><text fill="#000000" font-family="sans-serif" font-size="14" lengthAdjust="spacing" textLength="60.3203" x="278.1904" y="1410.5601">exclude)</text><g data-visibility-modifier="PUBLIC_METHOD"><ellipse cx="260.29" cy="1423.5103" fill="#84BE84" rx="3" ry="3" style="stroke:#038048;stroke-width:1;"/></g><text fill="#000000" font-family="sans-serif" font-size="14" lengthAdjust="spacing" textLength="83.5625" x="269.29" y="1426.857">clone(deep)</text></g><!--class Tool1--><g class="entity" data-qualified-name="Tool1" data-source-line="53" id="ent0004"><rect fill="#F1F1F1" height="145.7813" rx="2.5" ry="2.5" style="stroke:#181818;stroke-width:0.5;" width="135.7031" x="274.61" y="121.08"/><ellipse cx="318.9718" cy="137.08" fill="#ADD1B2" rx="11" ry="11" style="stroke:#181818;stroke-width:1;"/><path d="M321.9406,142.7206 Q321.3624,143.0175 320.7218,143.1581 Q320.0812,143.3144 319.3781,143.3144 Q316.8781,143.3144 315.5499,141.6738 Q314.2374,140.0175 314.2374,136.8925 Q314.2374,133.7675 315.5499,132.1113 Q316.8781,130.455 319.3781,130.455 Q320.0812,130.455 320.7218,130.6113 Q321.3781,130.7675 321.9406,131.0644 L321.9406,133.7831 Q321.3156,133.205 320.7218,132.9394 Q320.1281,132.6581 319.5031,132.6581 Q318.1593,132.6581 317.4718,133.7363 Q316.7843,134.7988 316.7843,136.8925 Q316.7843,138.9863 317.4718,140.0644 Q318.1593,141.1269 319.5031,141.1269 Q320.1281,141.1269 320.7218,140.8613 Q321.3156,140.58 321.9406,140.0019 L321.9406,142.7206 Z " fill="#000000"/><text fill="#000000" font-family="sans-serif" font-size="14" lengthAdjust="spacing" textLength="38.4795" x="339.4718" y="141.9267">Tool1</text><line style="stroke:#181818;stroke-width:0.5;" x1="275.61" x2="409.3131" y1="153.08" y2="153.08"/><line style="stroke:#181818;stroke-width:0.5;" x1="275.61" x2="409.3131" y1="161.08" y2="161.08"/><g data-visibility-modifier="PUBLIC_METHOD"><ellipse cx="285.61" cy="182.8769" fill="#84BE84" rx="3" ry="3" style="stroke:#038048;stroke-width:1;"/></g><text fill="#000000" font-family="sans-serif" font-size="14" lengthAdjust="spacing" textLength="100.0918" x="294.61" y="178.0751">initialize(path,</text><text fill="#000000" font-family="sans-serif" font-size="14" lengthAdjust="spacing" textLength="59.3428" x="303.5104" y="194.372">files_tbl)</text><g data-visibility-modifier="PUBLIC_METHOD"><ellipse cx="285.61" cy="207.3222" fill="#84BE84" rx="3" ry="3" style="stroke:#038048;stroke-width:1;"/></g><text fill="#000000" font-family="sans-serif" font-size="14" lengthAdjust="spacing" textLength="97.125" x="294.61" y="210.6689">tidy_table3(x)</text><g data-visibility-modifier="PUBLIC_METHOD"><ellipse cx="285.61" cy="223.6191" fill="#84BE84" rx="3" ry="3" style="stroke:#038048;stroke-width:1;"/></g><text fill="#000000" font-family="sans-serif" font-size="14" lengthAdjust="spacing" textLength="109.7031" x="294.61" y="226.9657">parse_table5(x)</text><g data-visibility-modifier="PUBLIC_METHOD"><ellipse cx="285.61" cy="239.9159" fill="#84BE84" rx="3" ry="3" style="stroke:#038048;stroke-width:1;"/></g><text fill="#000000" font-family="sans-serif" font-size="14" lengthAdjust="spacing" textLength="97.125" x="294.61" y="243.2626">tidy_table5(x)</text><g data-visibility-modifier="PUBLIC_METHOD"><ellipse cx="285.61" cy="256.2128" fill="#84BE84" rx="3" ry="3" style="stroke:#038048;stroke-width:1;"/></g><text fill="#000000" font-family="sans-serif" font-size="14" lengthAdjust="spacing" textLength="83.5625" x="294.61" y="259.5595">clone(deep)</text></g><!--class Workflow--><g class="entity" data-qualified-name="Workflow" data-source-line="61" id="ent0005"><rect fill="#F1F1F1" height="650.9844" rx="2.5" ry="2.5" style="stroke:#181818;stroke-width:0.5;" width="189.543" x="470.69" y="612.06"/><ellipse cx="528.6588" cy="628.06" fill="#ADD1B2" rx="11" ry="11" style="stroke:#181818;stroke-width:1;"/><path d="M531.6275,633.7006 Q531.0494,633.9975 530.4088,634.1381 Q529.7681,634.2944 529.065,634.2944 Q526.565,634.2944 525.2369,632.6538 Q523.9244,630.9975 523.9244,627.8725 Q523.9244,624.7475 525.2369,623.0913 Q526.565,621.435 529.065,621.435 Q529.7681,621.435 530.4088,621.5913 Q531.065,621.7475 531.6275,622.0444 L531.6275,624.7631 Q531.0025,624.185 530.4088,623.9194 Q529.815,623.6381 529.19,623.6381 Q527.8463,623.6381 527.1588,624.7163 Q526.4713,625.7788 526.4713,627.8725 Q526.4713,629.9663 527.1588,631.0444 Q527.8463,632.1069 529.19,632.1069 Q529.815,632.1069 530.4088,631.8413 Q531.0025,631.56 531.6275,630.9819 L531.6275,633.7006 Z " fill="#000000"/><text fill="#000000" font-family="sans-serif" font-size="14" lengthAdjust="spacing" textLength="65.1055" x="549.1588" y="632.9067">Workflow</text><line style="stroke:#181818;stroke-width:0.5;" x1="471.69" x2="659.233" y1="644.06" y2="644.06"/><g data-visibility-modifier="PRIVATE_FIELD"><rect fill="none" height="6" style="stroke:#C82930;stroke-width:1;" width="6" x="478.69" y="654.7084"/></g><text fill="#000000" font-family="sans-serif" font-size="14" lengthAdjust="spacing" textLength="57.8389" x="490.69" y="661.0551">is_tidied</text><g data-visibility-modifier="PRIVATE_FIELD"><rect fill="none" height="6" style="stroke:#C82930;stroke-width:1;" width="6" x="478.69" y="671.0053"/></g><text fill="#000000" font-family="sans-serif" font-size="14" lengthAdjust="spacing" textLength="67.7441" x="490.69" y="677.352">is_written</text><g data-visibility-modifier="PUBLIC_FIELD"><ellipse cx="481.69" cy="690.3022" fill="none" rx="3" ry="3" style="stroke:#038048;stroke-width:1;"/></g><text fill="#000000" font-family="sans-serif" font-size="14" lengthAdjust="spacing" textLength="39.7031" x="490.69" y="693.6489">name</text><g data-visibility-modifier="PUBLIC_FIELD"><ellipse cx="481.69" cy="706.5991" fill="none" rx="3" ry="3" style="stroke:#038048;stroke-width:1;"/></g><text fill="#000000" font-family="sans-serif" font-size="14" lengthAdjust="spacing" textLength="31.8281" x="490.69" y="709.9457">path</text><g data-visibility-modifier="PUBLIC_FIELD"><ellipse cx="481.69" cy="722.8959" fill="none" rx="3" ry="3" style="stroke:#038048;stroke-width:1;"/></g><text fill="#000000" font-family="sans-serif" font-size="14" lengthAdjust="spacing" textLength="33.8037" x="490.69" y="726.2426">tools</text><g data-visibility-modifier="PUBLIC_FIELD"><ellipse cx="481.69" cy="739.1928" fill="none" rx="3" ry="3" style="stroke:#038048;stroke-width:1;"/></g><text fill="#000000" font-family="sans-serif" font-size="14" lengthAdjust="spacing" textLength="53.8809" x="490.69" y="742.5395">files_tbl</text><g data-visibility-modifier="PUBLIC_FIELD"><ellipse cx="481.69" cy="755.4897" fill="none" rx="3" ry="3" style="stroke:#038048;stroke-width:1;"/></g><text fill="#000000" font-family="sans-serif" font-size="14" lengthAdjust="spacing" textLength="85.1758" x="490.69" y="758.8364">written_files</text><line style="stroke:#181818;stroke-width:0.5;" x1="471.69" x2="659.233" y1="766.1381" y2="766.1381"/><g data-visibility-modifier="PRIVATE_METHOD"><rect fill="#F24D5C" height="6" style="stroke:#C82930;stroke-width:1;" width="6" x="478.69" y="776.7866"/></g><text fill="#000000" font-family="sans-serif" font-size="14" lengthAdjust="spacing" textLength="116.2246" x="490.69" y="783.1332">validate_tools(x)</text><g data-visibility-modifier="PUBLIC_METHOD"><ellipse cx="481.69" cy="812.3803" fill="#84BE84" rx="3" ry="3" style="stroke:#038048;stroke-width:1;"/></g><text fill="#000000" font-family="sans-serif" font-size="14" lengthAdjust="spacing" textLength="107.9668" x="490.69" y="799.4301">initialize(name,</text><text fill="#000000" font-family="sans-serif" font-size="14" lengthAdjust="spacing" textLength="36.2783" x="499.5904" y="815.727">path,</text><text fill="#000000" font-family="sans-serif" font-size="14" lengthAdjust="spacing" textLength="39.2656" x="499.5904" y="832.0239">tools)</text><g data-visibility-modifier="PUBLIC_METHOD"><ellipse cx="481.69" cy="844.9741" fill="#84BE84" rx="3" ry="3" style="stroke:#038048;stroke-width:1;"/></g><text fill="#000000" font-family="sans-serif" font-size="14" lengthAdjust="spacing" textLength="57.1689" x="490.69" y="848.3207">print(...)</text><g data-visibility-modifier="PUBLIC_METHOD"><ellipse cx="481.69" cy="869.4194" fill="#84BE84" rx="3" ry="3" style="stroke:#038048;stroke-width:1;"/></g><text fill="#000000" font-family="sans-serif" font-size="14" lengthAdjust="spacing" textLength="128.8164" x="490.69" y="864.6176">filter_files(include,</text><text fill="#000000" font-family="sans-serif" font-size="14" lengthAdjust="spacing" textLength="60.3203" x="499.5904" y="880.9145">exclude)</text><g data-visibility-modifier="PUBLIC_METHOD"><ellipse cx="481.69" cy="893.8647" fill="#84BE84" rx="3" ry="3" style="stroke:#038048;stroke-width:1;"/></g><text fill="#000000" font-family="sans-serif" font-size="14" lengthAdjust="spacing" textLength="98.376" x="490.69" y="897.2114">list_files(type)</text><g data-visibility-modifier="PUBLIC_METHOD"><ellipse cx="481.69" cy="918.31" fill="#84BE84" rx="3" ry="3" style="stroke:#038048;stroke-width:1;"/></g><text fill="#000000" font-family="sans-serif" font-size="14" lengthAdjust="spacing" textLength="63.0137" x="490.69" y="913.5082">tidy(tidy,</text><text fill="#000000" font-family="sans-serif" font-size="14" lengthAdjust="spacing" textLength="72.4678" x="499.5904" y="929.8051">keep_raw)</text><g data-visibility-modifier="PUBLIC_METHOD"><ellipse cx="481.69" cy="975.3491" fill="#84BE84" rx="3" ry="3" style="stroke:#038048;stroke-width:1;"/></g><text fill="#000000" font-family="sans-serif" font-size="14" lengthAdjust="spacing" textLength="72.208" x="490.69" y="946.102">write(diro,</text><text fill="#000000" font-family="sans-serif" font-size="14" lengthAdjust="spacing" textLength="51.4063" x="499.5904" y="962.3989">format,</text><text fill="#000000" font-family="sans-serif" font-size="14" lengthAdjust="spacing" textLength="60.2383" x="499.5904" y="978.6957">input_id,</text><text fill="#000000" font-family="sans-serif" font-size="14" lengthAdjust="spacing" textLength="70.4033" x="499.5904" y="994.9926">output_id,</text><text fill="#000000" font-family="sans-serif" font-size="14" lengthAdjust="spacing" textLength="57.2441" x="499.5904" y="1011.2895">dbconn)</text><g data-visibility-modifier="PUBLIC_METHOD"><ellipse cx="481.69" cy="1073.1303" fill="#84BE84" rx="3" ry="3" style="stroke:#038048;stroke-width:1;"/></g><text fill="#000000" font-family="sans-serif" font-size="14" lengthAdjust="spacing" textLength="89.9131" x="490.69" y="1027.5864">nemofy(diro,</text><text fill="#000000" font-family="sans-serif" font-size="14" lengthAdjust="spacing" textLength="51.4063" x="499.5904" y="1043.8832">format,</text><text fill="#000000" font-family="sans-serif" font-size="14" lengthAdjust="spacing" textLength="60.2383" x="499.5904" y="1060.1801">input_id,</text><text fill="#000000" font-family="sans-serif" font-size="14" lengthAdjust="spacing" textLength="70.4033" x="499.5904" y="1076.477">output_id,</text><text fill="#000000" font-family="sans-serif" font-size="14" lengthAdjust="spacing" textLength="56.2324" x="499.5904" y="1092.7739">dbconn,</text><text fill="#000000" font-family="sans-serif" font-size="14" lengthAdjust="spacing" textLength="55.1729" x="499.5904" y="1109.0707">include,</text><text fill="#000000" font-family="sans-serif" font-size="14" lengthAdjust="spacing" textLength="60.3203" x="499.5904" y="1125.3676">exclude)</text><g data-visibility-modifier="PUBLIC_METHOD"><ellipse cx="481.69" cy="1138.3178" fill="#84BE84" rx="3" ry="3" style="stroke:#038048;stroke-width:1;"/></g><text fill="#000000" font-family="sans-serif" font-size="14" lengthAdjust="spacing" textLength="159.0449" x="490.69" y="1141.6645">get_raw_schemas_all()</text><g data-visibility-modifier="PUBLIC_METHOD"><ellipse cx="481.69" cy="1154.6147" fill="#84BE84" rx="3" ry="3" style="stroke:#038048;stroke-width:1;"/></g><text fill="#000000" font-family="sans-serif" font-size="14" lengthAdjust="spacing" textLength="159.8105" x="490.69" y="1157.9614">get_tidy_schemas_all()</text><g data-visibility-modifier="PUBLIC_METHOD"><ellipse cx="481.69" cy="1170.9116" fill="#84BE84" rx="3" ry="3" style="stroke:#038048;stroke-width:1;"/></g><text fill="#000000" font-family="sans-serif" font-size="14" lengthAdjust="spacing" textLength="66.4727" x="490.69" y="1174.2582">get_tbls()</text><g data-visibility-modifier="PUBLIC_METHOD"><ellipse cx="481.69" cy="1211.6538" fill="#84BE84" rx="3" ry="3" style="stroke:#038048;stroke-width:1;"/></g><text fill="#000000" font-family="sans-serif" font-size="14" lengthAdjust="spacing" textLength="163.543" x="490.69" y="1190.5551">get_metadata(input_id,</text><text fill="#000000" font-family="sans-serif" font-size="14" lengthAdjust="spacing" textLength="70.4033" x="499.5904" y="1206.852">output_id,</text><text fill="#000000" font-family="sans-serif" font-size="14" lengthAdjust="spacing" textLength="76.1592" x="499.5904" y="1223.1489">output_dir,</text><text fill="#000000" font-family="sans-serif" font-size="14" lengthAdjust="spacing" textLength="38.6367" x="499.5904" y="1239.4457">pkgs)</text><g data-visibility-modifier="PUBLIC_METHOD"><ellipse cx="481.69" cy="1252.3959" fill="#84BE84" rx="3" ry="3" style="stroke:#038048;stroke-width:1;"/></g><text fill="#000000" font-family="sans-serif" font-size="14" lengthAdjust="spacing" textLength="83.5625" x="490.69" y="1255.7426">clone(deep)</text></g><!--class Workflow1--><g class="entity" data-qualified-name="Workflow1" data-source-line="84" id="ent0006"><rect fill="#F1F1F1" height="80.5938" rx="2.5" ry="2.5" style="stroke:#181818;stroke-width:0.5;" width="127.1035" x="501.91" y="153.68"/><ellipse cx="526.4009" cy="169.68" fill="#ADD1B2" rx="11" ry="11" style="stroke:#181818;stroke-width:1;"/><path d="M529.3696,175.3206 Q528.7915,175.6175 528.1509,175.7581 Q527.5102,175.9144 526.8071,175.9144 Q524.3071,175.9144 522.979,174.2738 Q521.6665,172.6175 521.6665,169.4925 Q521.6665,166.3675 522.979,164.7113 Q524.3071,163.055 526.8071,163.055 Q527.5102,163.055 528.1509,163.2113 Q528.8071,163.3675 529.3696,163.6644 L529.3696,166.3831 Q528.7446,165.805 528.1509,165.5394 Q527.5571,165.2581 526.9321,165.2581 Q525.5884,165.2581 524.9009,166.3363 Q524.2134,167.3988 524.2134,169.4925 Q524.2134,171.5863 524.9009,172.6644 Q525.5884,173.7269 526.9321,173.7269 Q527.5571,173.7269 528.1509,173.4613 Q528.7446,173.18 529.3696,172.6019 L529.3696,175.3206 Z " fill="#000000"/><text fill="#000000" font-family="sans-serif" font-size="14" lengthAdjust="spacing" textLength="74.0127" x="542.51" y="174.5267">Workflow1</text><line style="stroke:#181818;stroke-width:0.5;" x1="502.91" x2="628.0135" y1="185.68" y2="185.68"/><line style="stroke:#181818;stroke-width:0.5;" x1="502.91" x2="628.0135" y1="193.68" y2="193.68"/><g data-visibility-modifier="PUBLIC_METHOD"><ellipse cx="512.91" cy="207.3284" fill="#84BE84" rx="3" ry="3" style="stroke:#038048;stroke-width:1;"/></g><text fill="#000000" font-family="sans-serif" font-size="14" lengthAdjust="spacing" textLength="101.1035" x="521.91" y="210.6751">initialize(path)</text><g data-visibility-modifier="PUBLIC_METHOD"><ellipse cx="512.91" cy="223.6253" fill="#84BE84" rx="3" ry="3" style="stroke:#038048;stroke-width:1;"/></g><text fill="#000000" font-family="sans-serif" font-size="14" lengthAdjust="spacing" textLength="83.5625" x="521.91" y="226.972">clone(deep)</text></g><!--reverse link Tool1 to Tool--><g class="link" data-entity-1="ent0004" data-entity-2="ent0003" data-link-type="extension" data-source-line="88" id="lnk7"><path codeLine="88" d="M342.46,285.09 C342.46,329.59 342.46,373 342.46,440.72" fill="none" id="Tool1-backto-Tool" style="stroke:#181818;stroke-width:1;"/><polygon fill="none" points="342.46,267.09,336.46,285.09,348.46,285.09,342.46,267.09" style="stroke:#181818;stroke-width:1;"/></g><!--reverse link Workflow1 to Workflow--><g class="link" data-entity-1="ent0006" data-entity-2="ent0005" data-link-type="extension" data-source-line="89" id="lnk8"><path codeLine="89" d="M565.46,252.58 C565.46,324.31 565.46,464.04 565.46,611.84" fill="none" id="Workflow1-backto-Workflow" style="stroke:#181818;stroke-width:1;"/><polygon fill="none" points="565.46,234.58,559.46,252.58,571.46,252.58,565.46,234.58" style="stroke:#181818;stroke-width:1;"/></g><?plantuml-src rLH9hjim3Dth55awS6EWABhhhbSeq4q1GR7eX8Wi6P8okCFTIr5s7Ftltm15DztOdCNXaQrH8Mm-EzlXOVD3rD4v8-hXT11roq9HUtMLeJr2hu9KXhHeCQ8o-1sgPFxkczrio6DBVXvjh9gc8Tg3qXNz3n3be684RyFCTt4SeEIgsyHf2At78Q9Rx1-Uhr8wpik8UYoqrOqJkV2tD58UxY4kbFWzhzOPsQjXTYLfQvo5IWCCM_5BY9RRyuMgfERiCAI829h9gqUgoehQgXwcdb6XnwLp7He8rDEz2IjjJCcLafJIWpGB5hyYvocwfE35H58oyqJodr9Yucx_Ob0af-58LbTeMtFMEGBSc2OJWo5E1cbM96aq1ehS7ccsFi3KmPXUBxIfd9TAzf3xSHxycZOzDcdk5Mams3EL4s-uLskMD80BU6fcWbaPL9vW90oSdqT_yB7kcD2SFOOtNRZOz67PYK2KfaUA11L25NgN9-5yhoAJQ8TpbAYPSUVumEazbM79sqBlkl7lt2UhjQ6-2VNtwH0yG6eLGTpxgFO6Fl3gvcwnu2CB5eFChpxtrVbJPzpr-NRnOgLp4mhaJsOPd6B7swqY9P8i-TtLtPWhOhD_iG__r-ZBkvBlwlRL_IdbTCHckeUegCkg-aCE4qUPpzSeF0F16kvU-MI0Vlgvsp5MnUBCifdz3G00?></g></svg>